PathFileType	4	(X/Y/Z)	6_2_10_p0_0-395.trc
DataRate	CameraRate	NumFrames	NumMarkers	Units	OrigDataRate	OrigDataStartFrame	OrigNumFrames
59.0	59.0	5	27	m	59.0	346	396
Frame#	Time	RHip			RKnee			RAnkle			RBigToe			RSmallToe			RHeel			LHip			LKnee			LAnkle			LBigToe			LSmallToe			LHeel			Neck			Head			Nose			RShoulder			RElbow			RWrist			RThumb			RIndex			RPinky			LShoulder			LElbow			LWrist			LThumb			LIndex			LPinky			
		X1	Y1	Z1	X2	Y2	Z2	X3	Y3	Z3	X4	Y4	Z4	X5	Y5	Z5	X6	Y6	Z6	X7	Y7	Z7	X8	Y8	Z8	X9	Y9	Z9	X10	Y10	Z10	X11	Y11	Z11	X12	Y12	Z12	X13	Y13	Z13	X14	Y14	Z14	X15	Y15	Z15	X16	Y16	Z16	X17	Y17	Z17	X18	Y18	Z18	X19	Y19	Z19	X20	Y20	Z20	X21	Y21	Z21	X22	Y22	Z22	X23	Y23	Z23	X24	Y24	Z24	X25	Y25	Z25	X26	Y26	Z26	X27	Y27	Z27	
346	5.864406779661017	0.24924934761470904	0.4651977835971866	0.7052340902558658	0.2431724433803895	0.5592161184110787	1.1180681124075906	0.260077223355646	0.5783925696470789	1.508187128624609	0.26480559244123875	0.32712576624106243	1.4829023295313328	0.31657633611479186	0.3837226833033104	1.5058096611285479	0.2581873094872447	0.6028042317017482	1.5830388396820714	0.02468399730136488	0.43836133731909194	0.7116425950472451	0.057669004448781154	0.48788190446786356	1.0948011730293745	0.12076794324232235	0.5599576350656508	1.5201629757684214	0.11206307739653784	0.3801868185952832	1.5298631723481226	0.0628909023791152	0.402651024123773	1.5195988965309695	0.12988705572475703	0.6009751025213187	1.5760317059417057	0.08435374077043724	0.4699977400181658	0.06811364056377317	0.08160610062807318	0.44339483151028514	-0.1851331433259606	0.07237858268779808	0.40937767991085316	-0.0333083443750111	0.2509138826732146	0.5219466216518829	0.16235235127886494	0.3360363011559873	0.48813207376778334	0.44102687123824436	0.3265787373755279	0.3973493523732471	0.6696981602602766	0.24338412905290516	0.4106101836275644	0.7810305583355841	0.28313787343257124	0.42142851380681856	0.8267632948510194	0.3089460891961902	0.4062317339490316	0.8193598543866442	-0.06241466682858709	0.5157897107034988	0.17975836769413073	-0.10516268681753102	0.4515841753205204	0.45367152340651407	-0.07232941719774419	0.4140777715446243	0.7008395003370025	0.015907247731186215	0.4056797723830412	0.7816648225613755	0.0054422186029681515	0.353878109776427	0.7801231031998436	-0.0563197568191148	0.4198331772674948	0.8239918250138866
347	5.88135593220339	0.24920437025270367	0.4652357437011712	0.705473880873792	0.24782150394731028	0.5445763112137048	1.110932108785917	0.26009359111793107	0.5784331538381511	1.5081428655788482	0.26485648927727357	0.3271291766564886	1.48288315161068	0.31658369100752265	0.3836818925228674	1.5057602675869737	0.25748836250642176	0.5999432398756255	1.5715614708753483	0.02721082278283304	0.4505011212322544	0.7152186317800309	0.057678661102836835	0.48792672025928957	1.0947535258878596	0.12073836232354601	0.560004513650326	1.5201346306893941	0.1112468145104952	0.38074414844964394	1.5346958560935282	0.06518329893097206	0.4153094178872274	1.5270548072745092	0.12990243499512039	0.6011689946998898	1.576086373915044	0.08436335600408913	0.46997248359158106	0.0681155528139221	0.08161743609215662	0.4433592327354993	-0.18511918023991003	0.06972613546094632	0.3978389865992777	-0.03376741431313979	0.25089910999836934	0.5219305335066771	0.16234667953468465	0.3360325404870504	0.48809926854243957	0.4409013523892603	0.3266017376001989	0.39729759246488766	0.669644859227265	0.24677120867181465	0.42307368643410925	0.7852037081350878	0.28731595767867174	0.4082252579745677	0.8215054950397398	0.30887362336653607	0.40632436481833706	0.8194272492515562	-0.062391329167530006	0.5158127071868582	0.17974039645671402	-0.10519431507254841	0.4516591348795693	0.453507741862579	-0.07234478634875471	0.41410523167062185	0.7007408684836599	0.019816700893735828	0.4079044432874575	0.7818937088290322	0.005548683610741552	0.35399770454659707	0.7799379334879039	-0.056343457910284105	0.4198588284942661	0.8238731730716633
348	5.898305084745763	0.24536733395202434	0.46328009996166425	0.7005633455853042	0.2478646947808573	0.5441732465346332	1.1106541554421479	0.2644167473462854	0.580766894013074	1.5086969744220644	0.2683366778739529	0.33993142578589536	1.4900950014465355	0.32051767716621343	0.3959884370829372	1.5125656920305421	0.2576351796561113	0.6002525066635107	1.5715576471057775	0.026415387121719047	0.449270551613935	0.710567024472716	0.05761130578531684	0.48794728300470647	1.0947586402622573	0.12064399805378682	0.5602658503954562	1.5196203154645698	0.11313462985387296	0.38238505679770013	1.5355708932107306	0.06510763862848691	0.4155206570723104	1.526947176850509	0.1300243643268419	0.6014414132275102	1.5761742451644785	0.08434032580861348	0.4699063877870675	0.06819805696970027	0.07740240456345243	0.4405701958502168	-0.184809579961675	0.06968546489718945	0.3976652654888631	-0.03374953241275814	0.25053431628380446	0.5223580185630011	0.15895971160587594	0.33589156234292483	0.47287869528334486	0.4374538192721034	0.33080278183763007	0.39928658684160034	0.6696781295076754	0.24671753369827537	0.42286242881270764	0.7849775637237232	0.28742567033418054	0.40794789858549435	0.8213635933363332	0.31245781558166996	0.3925093078525569	0.8139578268336417	-0.062335861499491656	0.5157662420384527	0.17966046384108714	-0.10574382037086529	0.4525032976496749	0.4498233044365188	-0.0723608830146832	0.4140847061695745	0.7006547680981874	0.01931931527462573	0.4088235797467312	0.7780751534056106	0.005687731221393003	0.353903624413323	0.779771980410464	-0.05343656153504903	0.4219276009438036	0.821163148492706
349	5.915254237288136	0.24539017892572346	0.4633375105198547	0.7004871020993162	0.24788126608860783	0.5442278602489228	1.1106888170948357	0.2644060347940718	0.5808401239194159	1.5086769178089836	0.26829622795368935	0.34001808256800575	1.4901172630752384	0.32036724114541865	0.3961080164102352	1.512658042360088	0.25766245138685395	0.6000399478745676	1.5714479606844676	0.02641004287786813	0.4492754782941115	0.7105714620043975	0.05818063718116704	0.4878837540385854	1.0902131637502959	0.12063176617488965	0.5603547082616794	1.519629611202787	0.11317180510362897	0.38250755407860787	1.5356877303148246	0.06509974077401942	0.41560962593325346	1.5269716460805192	0.12925972819206275	0.6030840163776244	1.5720342857303256	0.08432699608876394	0.46984113700892094	0.06820556346355112	0.08149473508567397	0.44305152653616797	-0.18506080454935248	0.06970549571225895	0.3977423721874582	-0.03373689349583878	0.25091894024925576	0.5217745474880283	0.16231779489786888	0.3359122626277148	0.4728796781728533	0.4374292295570504	0.33447546545519496	0.41085857663951814	0.6729797194611351	0.24336311973865873	0.41047320972721574	0.7810049043585762	0.28737700643655806	0.4079053105379949	0.821414469777681	0.31241368179974854	0.3924456434618549	0.8139699226243657	-0.06234032449906482	0.5157503402351473	0.17965398613568562	-0.1052644704507401	0.4516023023483457	0.4535691331911035	-0.07237298862829464	0.41400203053931744	0.7006579029615474	0.01971585495177352	0.4085863053024986	0.7741924406997689	0.005671517530557475	0.3537487563738208	0.7796517773296107	-0.0565505039911792	0.4202256787411902	0.8207812104706232
350	5.932203389830509	0.2453663919239403	0.4634535460587035	0.700568554588427	0.24785921306540654	0.5442007890660526	1.110749081151902	0.2644424051318854	0.5808051168914926	1.5086054728056344	0.26834079692926255	0.34002627762967325	1.4901138465533244	0.320465148827428	0.39604557679563934	1.5126078602679591	0.2576905667896786	0.599876581264187	1.5713178130381622	0.027191208109744357	0.4506065740538692	0.7151004784629147	0.057206455119358804	0.48619692270061793	1.085121406705926	0.12064661477372013	0.559938322233077	1.519590310977941	0.11396349289642438	0.3805866088816132	1.539511408402421	0.06285279636492624	0.40278229561517537	1.5195774594365845	0.1300616135083774	0.60138150056661	1.5761048467520014	0.08465737678096934	0.4693259939948081	0.07156989581603916	0.08141517660593801	0.4427973474476065	-0.18505239067034643	0.06974874336032201	0.39768132271126994	-0.033667547970861585	0.2509399808164386	0.5217585618249732	0.16232818711853556	0.33984765768897846	0.47425849935921366	0.43734347409257684	0.33447338470023985	0.410934480432349	0.6729990522489493	0.24629055223727767	0.42279275611977063	0.788951999543245	0.2874081818360486	0.40782391848154886	0.8214443416071462	0.31255603389570086	0.3922085995875029	0.8138640697696398	-0.06234048494806516	0.5157854291490035	0.17968338268990072	-0.10567956111737911	0.4523957916118857	0.449782484958548	-0.07236753679810988	0.4139367665301181	0.7006565239233058	0.01929197875320538	0.40871512372147656	0.778322831403101	0.005798584752081262	0.3539007678194577	0.7794547155763815	-0.053305825919847095	0.4214747987849875	0.8208152585304914
